PathFileType	4	(X/Y/Z)	./resultDataOpenSim/trcMotMarkerGrf/sub10/qtm-01-04.trc
DataRate	CameraRate	NumFrames	NumMarkers	Units	OrigDataRate	OrigDataStartFrame	OrigNumFrames
250.000000	250.000000	14	24	m	250.000000	351	467
Frame#	Time	L.Toe.Tip			R.Toe.Tip			L.Ankle.Lat			R.Ankle.Lat			L.Ankle.Med			R.Ankle.Med			L.Heel			R.Heel			L.Knee.Lat			R.Knee.Lat			L.Knee.Med			R.Knee.Med			L.Thigh.Upper			R.Thigh.Upper			L.ASIS			R.ASIS			V.Sacral			L.Acromium			R.Acromium			C7			L.Elbow			R.Elbow			L.Wrist.Lat			R.Wrist.Lat
		X1	Y1	Z1	X2	Y2	Z2	X3	Y3	Z3	X4	Y4	Z4	X5	Y5	Z5	X6	Y6	Z6	X7	Y7	Z7	X8	Y8	Z8	X9	Y9	Z9	X10	Y10	Z10	X11	Y11	Z11	X12	Y12	Z12	X13	Y13	Z13	X14	Y14	Z14	X15	Y15	Z15	X16	Y16	Z16	X17	Y17	Z17	X18	Y18	Z18	X19	Y19	Z19	X20	Y20	Z20	X21	Y21	Z21	X22	Y22	Z22	X23	Y23	Z23	X24	Y24	Z24

351	1.4	0.7996457	0.060999503	-0.19366779	0.87481924	0.038901774	-0.046950557	0.69436955	0.1457188	-0.20352081	0.73561891	0.057376906	0.0084446964	0.72434343	0.1557884	-0.12353672	0.74883812	0.087838905	-0.074793387	0.6292537	0.14360814	-0.15085859	0.68105863	0.035998292	-0.032322929	0.90092423	0.47267799	-0.22915407	0.78406517	0.45750407	0.058031444	0.92602776	0.44294111	-0.11204174	0.77758406	0.46354581	-0.071287526	0.80674367	0.84430712	-0.27116914	0.81644425	0.87459259	0.1066894	0.86036648	0.96268876	-0.21264891	0.88084857	0.96834015	0.030435397	0.67309771	0.97636203	-0.076972349	0.78731793	1.4466725	-0.2273766	0.75873728	1.4232053	0.096606255	0.68875697	1.4547112	-0.075436275	0.72031761	1.1133309	-0.28892241	0.68462849	1.0763897	0.1360525	0.84650067	0.90611102	-0.32284506	0.83923402	0.89542421	0.20137635
352	1.404	0.81899102	0.060816074	-0.1945414	0.87490367	0.038813244	-0.0469445	0.71116212	0.1420637	-0.20379176	0.73562409	0.0575631	0.0082475955	0.74046537	0.15280374	-0.12355891	0.74898993	0.088126623	-0.074847469	0.64620529	0.13774595	-0.15106476	0.68138133	0.036300972	-0.032609664	0.91076434	0.47399332	-0.22873168	0.78485897	0.45765367	0.05837132	0.93675289	0.44449426	-0.11180442	0.77955568	0.46342258	-0.070752469	0.81394899	0.8450974	-0.27182693	0.82039282	0.87446482	0.10645348	0.86787701	0.96302438	-0.21218631	0.88586799	0.96797988	0.030632486	0.67920745	0.97699843	-0.077493763	0.79312954	1.4469445	-0.22768608	0.76429201	1.4237053	0.096180758	0.69461769	1.4549111	-0.075873816	0.72398854	1.1141749	-0.28919775	0.69298031	1.0761955	0.13703129	0.84787442	0.90582471	-0.32430526	0.85099942	0.89765644	0.20113915
353	1.408	0.83839479	0.060666758	-0.19539437	0.8749957	0.038712964	-0.046959367	0.72811464	0.13844495	-0.20400631	0.73562224	0.05772552	0.0080219052	0.75706159	0.14972243	-0.12368068	0.74915077	0.088382466	-0.074884506	0.66309331	0.1321263	-0.15119264	0.68175277	0.036471497	-0.032751308	0.92047474	0.47522412	-0.22829793	0.78580038	0.45778879	0.058649567	0.94716755	0.44595733	-0.11151949	0.78163765	0.46321167	-0.070254016	0.82110866	0.84578842	-0.2724384	0.82429751	0.87436047	0.10621883	0.87541569	0.96326223	-0.21172675	0.89086131	0.96756651	0.03085842	0.68523376	0.9774108	-0.077816532	0.79895646	1.4471195	-0.22799591	0.76986683	1.4241272	0.095761046	0.70047237	1.4550401	-0.07632049	0.72764576	1.1149508	-0.28947097	0.70123953	1.0759085	0.13797422	0.84925412	0.9055073	-0.32574649	0.86273691	0.8998836	0.20088
354	1.412	0.8579673	0.060614556	-0.19624367	0.87508755	0.038624269	-0.046979518	0.74520449	0.1348484	-0.20416859	0.73560478	0.057871914	0.0077660563	0.77394339	0.14660418	-0.12386964	0.74943515	0.088610086	-0.074923424	0.67992836	0.12666319	-0.15110063	0.68214211	0.036531619	-0.032828615	0.93005323	0.47636044	-0.22787388	0.78684901	0.45789803	0.058852832	0.95708165	0.4473293	-0.11113998	0.78376046	0.46291883	-0.069838048	0.82817937	0.84638164	-0.27290528	0.82819015	0.87428984	0.10600426	0.88224674	0.96345229	-0.21131653	0.89584377	0.96709121	0.031117739	0.69081314	0.97746697	-0.078350192	0.80479949	1.4472014	-0.22830693	0.77545993	1.424463	0.095347477	0.70632181	1.4551007	-0.07676909	0.73128473	1.1156528	-0.28975345	0.70935444	1.0755018	0.13882154	0.85064873	0.90515832	-0.32714982	0.87445567	0.90210725	0.20062317
355	1.416	0.87768494	0.060682332	-0.19707372	0.87516709	0.038567143	-0.046988638	0.76243959	0.1312452	-0.20429228	0.73556569	0.058006569	0.0074829986	0.79087812	0.1435123	-0.12408025	0.74977656	0.088835674	-0.074987744	0.6968958	0.12118777	-0.15083132	0.68241977	0.036564577	-0.033021331	0.93949106	0.47740079	-0.22746609	0.78800588	0.45797014	0.058990733	0.96661784	0.44860925	-0.11069447	0.78592942	0.46256863	-0.069564093	0.83521841	0.84687691	-0.27327675	0.83204128	0.87422718	0.10581945	0.88828852	0.96359684	-0.21095622	0.90083881	0.96653174	0.031412902	0.69592489	0.97724254	-0.079346192	0.81065757	1.4471894	-0.22862101	0.78106777	1.4247142	0.09493959	0.71217259	1.4550933	-0.077218291	0.73486721	1.1162698	-0.29013676	0.71740165	1.0749741	0.1395732	0.85205527	0.90480513	-0.328532	0.88614241	0.90432063	0.20035535
356	1.42	0.89738849	0.060842054	-0.19783716	0.87523371	0.038540846	-0.046985815	0.77983546	0.12762706	-0.20438919	0.73550469	0.058127786	0.0071793661	0.80779715	0.14048246	-0.12426587	0.74988837	0.089061422	-0.075151988	0.71426882	0.11562958	-0.15061423	0.68249298	0.036619189	-0.033442744	0.94878799	0.47836136	-0.22706226	0.78929857	0.45799886	0.059070689	0.97594859	0.44979674	-0.11022686	0.78813823	0.46219107	-0.069474929	0.84244536	0.84728419	-0.27364053	0.83575148	0.87410769	0.10565614	0.89409406	0.96366339	-0.21060004	0.90586791	0.96586852	0.031742404	0.70098069	0.97694941	-0.080627954	0.81652498	1.4470851	-0.22894391	0.78667365	1.424884	0.094532304	0.71803176	1.4550198	-0.077672988	0.73830664	1.1167752	-0.29078994	0.72547352	1.0743723	0.14027508	0.85348067	0.90446619	-0.32991924	0.89778687	0.90651857	0.20004633
357	1.424	0.91695337	0.061050888	-0.19849215	0.87530686	0.038535326	-0.046983205	0.79737476	0.1240369	-0.20444801	0.73542848	0.058228142	0.0068543348	0.82481186	0.13753296	-0.12435525	0.74959324	0.089255613	-0.0754872	0.7321417	0.11003187	-0.15057628	0.68239443	0.036681974	-0.034058461	0.95795497	0.47925671	-0.22665397	0.79075629	0.45797909	0.059078809	0.98516912	0.45089837	-0.10976251	0.79040787	0.46180354	-0.06953107	0.84997062	0.84761958	-0.27404317	0.83926023	0.8738907	0.10549948	0.90013085	0.96362593	-0.2102087	0.91092535	0.96512032	0.032098769	0.70631497	0.97671359	-0.08194107	0.82239854	1.4468909	-0.22928082	0.79226305	1.4249747	0.094121117	0.72390049	1.4548821	-0.078140012	0.74153001	1.1171417	-0.29183223	0.73364926	1.0737543	0.14098756	0.85495348	0.90412698	-0.33132267	0.90939777	0.90870534	0.19968872
358	1.428	0.93637927	0.061286762	-0.19902476	0.8754252	0.038552054	-0.046988791	0.81501232	0.12053966	-0.20444242	0.73534744	0.058298945	0.0065001397	0.84204116	0.13464472	-0.12435051	0.74910611	0.089389494	-0.075951232	0.75041787	0.1044569	-0.15065248	0.68224579	0.036722394	-0.034741876	0.96699537	0.48008713	-0.22624905	0.79238324	0.45790268	0.05899411	0.99431543	0.45192907	-0.10930434	0.79277507	0.46141224	-0.069668947	0.85768058	0.84788951	-0.2744601	0.84264368	0.87360609	0.10534	0.90647535	0.96347654	-0.20977816	0.91596219	0.96434813	0.032471865	0.71191127	0.97650414	-0.083247645	0.82828317	1.4466068	-0.22962948	0.79783437	1.424988	0.093705117	0.72977414	1.4546809	-0.078621132	0.74460268	1.1173934	-0.29313846	0.74200538	1.073145	0.14176411	0.85649841	0.90375584	-0.33273344	0.9209887	0.91088581	0.19928935
359	1.432	0.955728	0.061553655	-0.19943975	0.87561882	0.038601071	-0.046995381	0.83271645	0.11716054	-0.2043633	0.73527065	0.058338892	0.0061162061	0.85959299	0.13179171	-0.1244006	0.7488058	0.089446951	-0.076435219	0.76894228	0.098981785	-0.15072223	0.68216129	0.036732738	-0.035378592	0.97589912	0.4808375	-0.22586008	0.79415828	0.45776282	0.058809581	1.0033791	0.45288842	-0.10884284	0.795234	0.46102171	-0.069883999	0.86535748	0.8480823	-0.27483376	0.8460541	0.87331077	0.10515061	0.91300597	0.96321495	-0.20932496	0.92090112	0.96361784	0.032863146	0.71763225	0.97624016	-0.084590868	0.83418282	1.4462294	-0.22998162	0.803395	1.4249237	0.093285305	0.73564837	1.4544144	-0.079108939	0.74771557	1.1176068	-0.29437379	0.7505716	1.0725343	0.14263247	0.85811106	0.90333096	-0.33414133	0.93256736	0.91306122	0.19884902
360	1.436	0.97504645	0.061863224	-0.19974506	0.87586098	0.03868032	-0.046981395	0.85049193	0.11387495	-0.20423051	0.73520382	0.058358422	0.0057141877	0.87778605	0.12906754	-0.12462084	0.74885335	0.089424979	-0.076879063	0.78755451	0.093705745	-0.15068725	0.68215403	0.036734367	-0.035954554	0.98466162	0.48148578	-0.2254907	0.7960571	0.45755822	0.05853255	1.0123238	0.45373804	-0.10837743	0.79772599	0.46063827	-0.070229625	0.87287139	0.8481818	-0.27513472	0.84961191	0.87302902	0.10486291	0.91961368	0.96283974	-0.20886466	0.92568186	0.962962	0.033289185	0.7234107	0.97587929	-0.08595579	0.84009507	1.4457557	-0.23033065	0.80895555	1.4247758	0.09286414	0.74152247	1.4540753	-0.079590222	0.75099408	1.1178349	-0.29531007	0.75929315	1.071894	0.14357167	0.85975876	0.9028459	-0.33555344	0.94413437	0.91523336	0.19837256
361	1.44	0.99434427	0.062221907	-0.19994575	0.87608956	0.03878098	-0.046917452	0.86836421	0.1106578	-0.20406613	0.73515065	0.058371011	0.0053058255	0.89686155	0.12665192	-0.12492364	0.74914383	0.089347301	-0.077283335	0.80615666	0.088690034	-0.1505069	0.68213861	0.036760007	-0.036548649	0.99329385	0.48201423	-0.22514037	0.79806753	0.457291	0.058176501	1.021122	0.45443352	-0.10792593	0.80020581	0.46026833	-0.070755096	0.88027308	0.8481855	-0.27538026	0.85332344	0.87273364	0.10442565	0.92625498	0.96235748	-0.20840671	0.93032404	0.96235219	0.033762	0.72922126	0.97541386	-0.087335725	0.84601705	1.4451866	-0.23067745	0.81452542	1.4245359	0.09244462	0.74739757	1.4536546	-0.080056402	0.7544104	1.1180665	-0.29598603	0.7680737	1.0711934	0.14452167	0.86140137	0.90229903	-0.33697879	0.95567854	0.91739711	0.19787578
362	1.444	1.0136103	0.062634427	-0.20004104	0.8762671	0.038898668	-0.046802069	0.88635108	0.10751528	-0.20386934	0.7351142	0.05838044	0.0048912868	0.91640137	0.12457279	-0.12513717	0.74950307	0.089245926	-0.077666422	0.82476453	0.083919919	-0.15022979	0.68202409	0.036829199	-0.037238726	1.0018108	0.48240547	-0.22482011	0.80018795	0.45696462	0.057757125	1.0297752	0.45496747	-0.10750412	0.80273203	0.45992285	-0.071432256	0.88766989	0.84810081	-0.27559419	0.8569776	0.87234168	0.10395667	0.93291061	0.96179374	-0.20795647	0.93492521	0.96171205	0.034275265	0.73502619	0.97483633	-0.088790474	0.85194947	1.4445255	-0.23102799	0.82011432	1.4242043	0.09203012	0.75327389	1.4531543	-0.080510214	0.757885	1.1182621	-0.29655592	0.77684529	1.0704082	0.14543021	0.8630277	0.90168854	-0.33839878	0.96718297	0.91953269	0.19737401
363	1.448	1.0328342	0.063110674	-0.20002198	0.87634818	0.038998834	-0.046715601	0.90445146	0.10446956	-0.2036316	0.7350953	0.05838343	0.0044655186	0.93562733	0.12265738	-0.12517159	0.74982687	0.089133875	-0.078049765	0.8434704	0.079340991	-0.14995743	0.68180324	0.036930541	-0.038012158	1.0102245	0.48263388	-0.22455179	0.8024172	0.4565844	0.057288336	1.0383001	0.45536026	-0.10711469	0.80542656	0.45961505	-0.072161748	0.89507348	0.84793158	-0.27577222	0.86025444	0.8717605	0.10375825	0.93953558	0.96117673	-0.20751618	0.93956525	0.96098364	0.034814307	0.74078816	0.97413964	-0.090372565	0.85789594	1.4437745	-0.23138496	0.82573397	1.42379	0.091624694	0.7591492	1.4525846	-0.080960453	0.76137363	1.1183918	-0.29712778	0.78557089	1.0695154	0.14626196	0.86466978	0.90101549	-0.33977679	0.97863969	0.92162111	0.19687388
364	1.452	1.0520129	0.06366384	-0.19987581	0.87627197	0.039023188	-0.046767796	0.92264727	0.10154154	-0.20336065	0.73509194	0.058382548	0.0040321892	0.9541729	0.12074265	-0.12502055	0.75007577	0.089011351	-0.078461778	0.86237931	0.074919493	-0.14975352	0.68156031	0.037026903	-0.038764462	1.0185497	0.48267541	-0.22434985	0.80474982	0.45615625	0.056777713	1.0467124	0.45563907	-0.10677005	0.80832094	0.45933416	-0.072849312	0.90244823	0.84767851	-0.27590579	0.86317575	0.87099683	0.10398124	0.94606326	0.96051461	-0.20708809	0.94424722	0.96016516	0.035370395	0.74649606	0.97333259	-0.092060614	0.8638603	1.4429314	-0.23174511	0.83138977	1.4232986	0.091229567	0.76502003	1.4519479	-0.081413903	0.76486231	1.1184408	-0.29773951	0.79419311	1.0684959	0.14695389	0.866363	0.90028629	-0.34110067	0.99004985	0.92366551	0.19636719
